<?xml version="1.0" standalone="no"?>
<svg xmlns:xlink="http://www.w3.org/1999/xlink" id="wave" style="transform:rotate(0deg); transition: 0.3s" viewBox="0 0 1440 170" version="1.1" xmlns="http://www.w3.org/2000/svg"><defs><linearGradient id="sw-gradient-0" x1="0" x2="0" y1="1" y2="0"><stop stop-color="rgba(135.108, 172.58, 232.194, 1)" offset="0%"/><stop stop-color="rgba(202, 169, 243, 1)" offset="100%"/></linearGradient></defs><path style="transform:translate(0, 0px); opacity:1" fill="url(#sw-gradient-0)" d="M0,17L34.3,28.3C68.6,40,137,62,206,62.3C274.3,62,343,40,411,25.5C480,11,549,6,617,2.8C685.7,0,754,0,823,19.8C891.4,40,960,79,1029,85C1097.1,91,1166,62,1234,45.3C1302.9,28,1371,23,1440,31.2C1508.6,40,1577,62,1646,76.5C1714.3,91,1783,96,1851,99.2C1920,102,1989,102,2057,96.3C2125.7,91,2194,79,2263,85C2331.4,91,2400,113,2469,102C2537.1,91,2606,45,2674,28.3C2742.9,11,2811,23,2880,39.7C2948.6,57,3017,79,3086,90.7C3154.3,102,3223,102,3291,104.8C3360,108,3429,113,3497,107.7C3565.7,102,3634,85,3703,68C3771.4,51,3840,34,3909,34C3977.1,34,4046,51,4114,73.7C4182.9,96,4251,125,4320,133.2C4388.6,142,4457,130,4526,104.8C4594.3,79,4663,40,4731,36.8C4800,34,4869,68,4903,85L4937.1,102L4937.1,170L4902.9,170C4868.6,170,4800,170,4731,170C4662.9,170,4594,170,4526,170C4457.1,170,4389,170,4320,170C4251.4,170,4183,170,4114,170C4045.7,170,3977,170,3909,170C3840,170,3771,170,3703,170C3634.3,170,3566,170,3497,170C3428.6,170,3360,170,3291,170C3222.9,170,3154,170,3086,170C3017.1,170,2949,170,2880,170C2811.4,170,2743,170,2674,170C2605.7,170,2537,170,2469,170C2400,170,2331,170,2263,170C2194.3,170,2126,170,2057,170C1988.6,170,1920,170,1851,170C1782.9,170,1714,170,1646,170C1577.1,170,1509,170,1440,170C1371.4,170,1303,170,1234,170C1165.7,170,1097,170,1029,170C960,170,891,170,823,170C754.3,170,686,170,617,170C548.6,170,480,170,411,170C342.9,170,274,170,206,170C137.1,170,69,170,34,170L0,170Z"/></svg>